<svg width="26" height="16" viewBox="0 0 26 16" fill="none" xmlns="http://www.w3.org/2000/svg">
<path d="M23.918 11.6797V15.8438H26V9.59766H2.08203V1.06641C2.08203 0.795438 1.98047 0.550012 1.77734 0.330078C1.57422 0.110043 1.32879 0 1.04102 0C0.753238 0 0.507812 0.110043 0.304688 0.330078C0.101562 0.550113 0 0.79559 0 1.06641V15.8438H2.08203V11.6797H23.918Z" fill="#222B3A"/>
<path d="M5.35742 5.33203C5.88214 5.33203 6.33918 5.14582 6.72852 4.77344C7.11786 4.40101 7.3125 3.95241 7.3125 3.42773C7.3125 2.90291 7.11786 2.45436 6.72852 2.08203C6.33918 1.70965 5.88214 1.52344 5.35742 1.52344C4.8327 1.52344 4.3841 1.70965 4.01172 2.08203C3.63934 2.45441 3.45312 2.90301 3.45312 3.42773C3.45312 3.95246 3.63934 4.40106 4.01172 4.77344C4.3841 5.14582 4.8327 5.33203 5.35742 5.33203Z" fill="#222B3A"/>
<path d="M26 8.02344V5.48438C26 5.07812 25.8561 4.74805 25.5684 4.49414C25.2804 4.24023 24.9165 4.07941 24.4766 4.01172L9.39453 2.53906H9.29297C9.02215 2.53906 8.79364 2.63214 8.60742 2.81836C8.42121 3.00457 8.32812 3.23309 8.32812 3.50391V6.44922H4.46875C3.8255 6.44922 3.50391 6.71161 3.50391 7.23633C3.50391 7.76105 3.8255 8.02344 4.46875 8.02344H26Z" fill="#222B3A"/>
</svg>
