<svg width="25" height="25" viewBox="0 0 25 25" fill="none" xmlns="http://www.w3.org/2000/svg">
<path d="M20.3572 8.70892H17.0605V12.5001H13.2693V15.7968H17.0605V19.5881H20.3572V15.7968H24.1484V12.5001H20.3572V8.70892Z" fill="#222B3A"/>
<path d="M11.6209 10.8518H15.4121V7.06058H22.0055V10.8518H23.9175C24.6026 9.75289 25 8.50706 25 7.14135C25 3.33465 21.9147 0.248053 18.1087 0.248053C15.7963 0.248053 13.75 1.38712 12.5 3.13509C11.25 1.38706 9.20374 0.247559 6.89126 0.247559C3.08533 0.247559 0 3.33344 0 7.1402C0 8.79503 0.583077 10.3134 1.55489 11.5015L12.5 24.7529L15.4121 21.2272V17.4452H11.6209V10.8518Z" fill="#222B3A"/>
</svg>
