<svg width="6" height="18" viewBox="0 0 6 18" fill="none" xmlns="http://www.w3.org/2000/svg">
<path d="M4.63594 13.5H1.36321C1.14156 13.5 0.949787 13.5811 0.787787 13.7429C0.625922 13.9048 0.544922 14.0965 0.544922 14.3181V17.1817C0.544922 17.4033 0.625922 17.5951 0.787787 17.7573C0.949922 17.9189 1.14152 18 1.36321 18H4.63621C4.85749 18 5.04936 17.9189 5.21149 17.7573C5.37313 17.5951 5.45418 17.4033 5.45418 17.1817V14.3181C5.45418 14.0965 5.373 13.9049 5.21118 13.7429C5.04922 13.5809 4.85736 13.5 4.63594 13.5Z" fill="white"/>
<path d="M5.61398 0.242867C5.45632 0.0811346 5.26674 0 5.045 0H0.954283C0.732729 0 0.543236 0.0811346 0.385489 0.242867C0.227832 0.404822 0.153279 0.596689 0.161786 0.818242L0.519639 10.6361C0.528146 10.8577 0.615416 11.0497 0.78167 11.2114C0.947835 11.3735 1.14172 11.4545 1.36336 11.4545H4.63637C4.85766 11.4545 5.0515 11.3735 5.21806 11.2114C5.38418 11.0497 5.47118 10.8577 5.48009 10.6361L5.83772 0.818242C5.84659 0.596689 5.77168 0.405001 5.61398 0.242867Z" fill="white"/>
</svg>
